<mxfile host="Electron" modified="2023-08-08T09:03:55.476Z" agent="Mozilla/5.0 (Macintosh; Intel Mac OS X 10_15_7) AppleWebKit/537.36 (KHTML, like Gecko) draw.io/21.6.5 Chrome/114.0.5735.243 Electron/25.3.1 Safari/537.36" etag="Z0AK1BNLKk_zpuW5qdo7" version="21.6.5" type="device">
  <diagram name="第 1 页" id="Vexwoc0lR-kWygHOiwW-">
    <mxGraphModel dx="1591" dy="2047" grid="1" gridSize="10" guides="1" tooltips="1" connect="1" arrows="1" fold="1" page="1" pageScale="1" pageWidth="1169" pageHeight="827" math="0" shadow="0">
      <root>
        <mxCell id="0" />
        <mxCell id="1" parent="0" />
        <mxCell id="GbkhVhWCkFTG1RMTP7oj-29" value="" style="edgeStyle=orthogonalEdgeStyle;rounded=0;orthogonalLoop=1;jettySize=auto;html=1;" edge="1" parent="1" source="GbkhVhWCkFTG1RMTP7oj-1" target="GbkhVhWCkFTG1RMTP7oj-28">
          <mxGeometry relative="1" as="geometry" />
        </mxCell>
        <mxCell id="GbkhVhWCkFTG1RMTP7oj-1" value="Website" style="rounded=1;whiteSpace=wrap;html=1;" vertex="1" parent="1">
          <mxGeometry x="190" y="255" width="80" height="50" as="geometry" />
        </mxCell>
        <mxCell id="GbkhVhWCkFTG1RMTP7oj-31" value="" style="edgeStyle=orthogonalEdgeStyle;rounded=0;orthogonalLoop=1;jettySize=auto;html=1;" edge="1" parent="1" source="GbkhVhWCkFTG1RMTP7oj-28" target="GbkhVhWCkFTG1RMTP7oj-30">
          <mxGeometry relative="1" as="geometry" />
        </mxCell>
        <mxCell id="GbkhVhWCkFTG1RMTP7oj-28" value="Request Procesor" style="rounded=1;whiteSpace=wrap;html=1;" vertex="1" parent="1">
          <mxGeometry x="320" y="257.5" width="150" height="45" as="geometry" />
        </mxCell>
        <mxCell id="GbkhVhWCkFTG1RMTP7oj-35" value="" style="edgeStyle=orthogonalEdgeStyle;rounded=0;orthogonalLoop=1;jettySize=auto;html=1;" edge="1" parent="1" source="GbkhVhWCkFTG1RMTP7oj-30" target="GbkhVhWCkFTG1RMTP7oj-34">
          <mxGeometry relative="1" as="geometry" />
        </mxCell>
        <mxCell id="GbkhVhWCkFTG1RMTP7oj-37" value="" style="edgeStyle=orthogonalEdgeStyle;rounded=0;orthogonalLoop=1;jettySize=auto;html=1;dashed=1;entryX=0;entryY=0.5;entryDx=0;entryDy=0;" edge="1" parent="1" source="GbkhVhWCkFTG1RMTP7oj-30" target="GbkhVhWCkFTG1RMTP7oj-54">
          <mxGeometry relative="1" as="geometry" />
        </mxCell>
        <mxCell id="GbkhVhWCkFTG1RMTP7oj-83" value="" style="edgeStyle=orthogonalEdgeStyle;rounded=0;orthogonalLoop=1;jettySize=auto;html=1;entryX=0;entryY=0.5;entryDx=0;entryDy=0;dashed=1;" edge="1" parent="1" source="GbkhVhWCkFTG1RMTP7oj-30" target="GbkhVhWCkFTG1RMTP7oj-84">
          <mxGeometry relative="1" as="geometry">
            <mxPoint x="850" y="370" as="targetPoint" />
          </mxGeometry>
        </mxCell>
        <mxCell id="GbkhVhWCkFTG1RMTP7oj-30" value="Request Router" style="rounded=1;whiteSpace=wrap;html=1;" vertex="1" parent="1">
          <mxGeometry x="520" y="257.5" width="150" height="45" as="geometry" />
        </mxCell>
        <mxCell id="GbkhVhWCkFTG1RMTP7oj-70" style="edgeStyle=orthogonalEdgeStyle;rounded=0;orthogonalLoop=1;jettySize=auto;html=1;exitX=0;exitY=0.5;exitDx=0;exitDy=0;entryX=0.5;entryY=1;entryDx=0;entryDy=0;" edge="1" parent="1" source="GbkhVhWCkFTG1RMTP7oj-34" target="GbkhVhWCkFTG1RMTP7oj-1">
          <mxGeometry relative="1" as="geometry" />
        </mxCell>
        <mxCell id="GbkhVhWCkFTG1RMTP7oj-34" value="&amp;nbsp;Response Generator" style="rounded=1;whiteSpace=wrap;html=1;" vertex="1" parent="1">
          <mxGeometry x="520" y="510" width="150" height="45" as="geometry" />
        </mxCell>
        <mxCell id="GbkhVhWCkFTG1RMTP7oj-55" style="edgeStyle=orthogonalEdgeStyle;rounded=0;orthogonalLoop=1;jettySize=auto;html=1;exitX=0.5;exitY=1;exitDx=0;exitDy=0;dashed=1;" edge="1" parent="1" source="GbkhVhWCkFTG1RMTP7oj-38" target="GbkhVhWCkFTG1RMTP7oj-54">
          <mxGeometry relative="1" as="geometry" />
        </mxCell>
        <mxCell id="GbkhVhWCkFTG1RMTP7oj-38" value="Monitor" style="rounded=1;whiteSpace=wrap;html=1;" vertex="1" parent="1">
          <mxGeometry x="1060" y="-190" width="120" height="60" as="geometry" />
        </mxCell>
        <mxCell id="GbkhVhWCkFTG1RMTP7oj-77" value="" style="edgeStyle=orthogonalEdgeStyle;rounded=0;orthogonalLoop=1;jettySize=auto;html=1;" edge="1" parent="1" source="GbkhVhWCkFTG1RMTP7oj-54" target="GbkhVhWCkFTG1RMTP7oj-71">
          <mxGeometry relative="1" as="geometry" />
        </mxCell>
        <mxCell id="GbkhVhWCkFTG1RMTP7oj-54" value="" style="swimlane;startSize=0;" vertex="1" parent="1">
          <mxGeometry x="790" y="-60.31999999999999" width="660" height="260.63" as="geometry">
            <mxRectangle x="740" y="160" width="50" height="40" as="alternateBounds" />
          </mxGeometry>
        </mxCell>
        <mxCell id="GbkhVhWCkFTG1RMTP7oj-46" value="Judge" style="rounded=1;whiteSpace=wrap;html=1;" vertex="1" parent="GbkhVhWCkFTG1RMTP7oj-54">
          <mxGeometry x="440" y="109.07" width="150" height="45" as="geometry" />
        </mxCell>
        <mxCell id="GbkhVhWCkFTG1RMTP7oj-36" value="Code Processor" style="rounded=1;whiteSpace=wrap;html=1;" vertex="1" parent="GbkhVhWCkFTG1RMTP7oj-54">
          <mxGeometry x="230" y="109.07" width="150" height="45" as="geometry" />
        </mxCell>
        <mxCell id="GbkhVhWCkFTG1RMTP7oj-47" value="" style="edgeStyle=orthogonalEdgeStyle;rounded=0;orthogonalLoop=1;jettySize=auto;html=1;startArrow=classic;startFill=1;" edge="1" parent="GbkhVhWCkFTG1RMTP7oj-54" source="GbkhVhWCkFTG1RMTP7oj-36" target="GbkhVhWCkFTG1RMTP7oj-46">
          <mxGeometry relative="1" as="geometry" />
        </mxCell>
        <mxCell id="GbkhVhWCkFTG1RMTP7oj-59" value="Judge" style="rounded=1;whiteSpace=wrap;html=1;" vertex="1" parent="GbkhVhWCkFTG1RMTP7oj-54">
          <mxGeometry x="440" y="46.57000000000001" width="150" height="45" as="geometry" />
        </mxCell>
        <mxCell id="GbkhVhWCkFTG1RMTP7oj-60" value="Code Processor" style="rounded=1;whiteSpace=wrap;html=1;" vertex="1" parent="GbkhVhWCkFTG1RMTP7oj-54">
          <mxGeometry x="230" y="46.57000000000001" width="150" height="45" as="geometry" />
        </mxCell>
        <mxCell id="GbkhVhWCkFTG1RMTP7oj-61" value="" style="edgeStyle=orthogonalEdgeStyle;rounded=0;orthogonalLoop=1;jettySize=auto;html=1;startArrow=classic;startFill=1;" edge="1" parent="GbkhVhWCkFTG1RMTP7oj-54" source="GbkhVhWCkFTG1RMTP7oj-60" target="GbkhVhWCkFTG1RMTP7oj-59">
          <mxGeometry relative="1" as="geometry" />
        </mxCell>
        <mxCell id="GbkhVhWCkFTG1RMTP7oj-57" value="Code Processor" style="rounded=1;whiteSpace=wrap;html=1;" vertex="1" parent="GbkhVhWCkFTG1RMTP7oj-54">
          <mxGeometry x="230" y="169.07" width="150" height="45" as="geometry" />
        </mxCell>
        <mxCell id="GbkhVhWCkFTG1RMTP7oj-64" value="" style="edgeStyle=orthogonalEdgeStyle;rounded=0;orthogonalLoop=1;jettySize=auto;html=1;startArrow=classic;startFill=1;" edge="1" parent="GbkhVhWCkFTG1RMTP7oj-54" source="GbkhVhWCkFTG1RMTP7oj-56" target="GbkhVhWCkFTG1RMTP7oj-57">
          <mxGeometry relative="1" as="geometry" />
        </mxCell>
        <mxCell id="GbkhVhWCkFTG1RMTP7oj-56" value="Judge" style="rounded=1;whiteSpace=wrap;html=1;" vertex="1" parent="GbkhVhWCkFTG1RMTP7oj-54">
          <mxGeometry x="440" y="169.07" width="150" height="45" as="geometry" />
        </mxCell>
        <mxCell id="GbkhVhWCkFTG1RMTP7oj-67" style="edgeStyle=orthogonalEdgeStyle;rounded=0;orthogonalLoop=1;jettySize=auto;html=1;exitX=1;exitY=0.25;exitDx=0;exitDy=0;entryX=0;entryY=0.5;entryDx=0;entryDy=0;" edge="1" parent="GbkhVhWCkFTG1RMTP7oj-54" source="GbkhVhWCkFTG1RMTP7oj-65" target="GbkhVhWCkFTG1RMTP7oj-60">
          <mxGeometry relative="1" as="geometry" />
        </mxCell>
        <mxCell id="GbkhVhWCkFTG1RMTP7oj-68" style="edgeStyle=orthogonalEdgeStyle;rounded=0;orthogonalLoop=1;jettySize=auto;html=1;exitX=1;exitY=0.5;exitDx=0;exitDy=0;entryX=0;entryY=0.5;entryDx=0;entryDy=0;" edge="1" parent="GbkhVhWCkFTG1RMTP7oj-54" source="GbkhVhWCkFTG1RMTP7oj-65" target="GbkhVhWCkFTG1RMTP7oj-36">
          <mxGeometry relative="1" as="geometry" />
        </mxCell>
        <mxCell id="GbkhVhWCkFTG1RMTP7oj-69" style="edgeStyle=orthogonalEdgeStyle;rounded=0;orthogonalLoop=1;jettySize=auto;html=1;exitX=1;exitY=0.75;exitDx=0;exitDy=0;entryX=0;entryY=0.5;entryDx=0;entryDy=0;" edge="1" parent="GbkhVhWCkFTG1RMTP7oj-54" source="GbkhVhWCkFTG1RMTP7oj-65" target="GbkhVhWCkFTG1RMTP7oj-57">
          <mxGeometry relative="1" as="geometry" />
        </mxCell>
        <mxCell id="GbkhVhWCkFTG1RMTP7oj-65" value="Code Comsumer" style="rounded=1;whiteSpace=wrap;html=1;" vertex="1" parent="GbkhVhWCkFTG1RMTP7oj-54">
          <mxGeometry x="30" y="100.63" width="120" height="60" as="geometry" />
        </mxCell>
        <mxCell id="GbkhVhWCkFTG1RMTP7oj-71" value="" style="strokeWidth=2;html=1;shape=mxgraph.flowchart.database;whiteSpace=wrap;" vertex="1" parent="1">
          <mxGeometry x="1600" y="40" width="60" height="60" as="geometry" />
        </mxCell>
        <mxCell id="GbkhVhWCkFTG1RMTP7oj-76" value="" style="edgeStyle=orthogonalEdgeStyle;rounded=0;orthogonalLoop=1;jettySize=auto;html=1;" edge="1" parent="1" source="GbkhVhWCkFTG1RMTP7oj-75" target="GbkhVhWCkFTG1RMTP7oj-34">
          <mxGeometry relative="1" as="geometry" />
        </mxCell>
        <mxCell id="GbkhVhWCkFTG1RMTP7oj-75" value="" style="sketch=0;outlineConnect=0;fontColor=#232F3E;gradientColor=none;strokeColor=#232F3E;fillColor=#ffffff;dashed=0;verticalLabelPosition=bottom;verticalAlign=top;align=center;html=1;fontSize=12;fontStyle=0;aspect=fixed;shape=mxgraph.aws4.resourceIcon;resIcon=mxgraph.aws4.cache_node;" vertex="1" parent="1">
          <mxGeometry x="460" y="610" width="70" height="70" as="geometry" />
        </mxCell>
        <mxCell id="GbkhVhWCkFTG1RMTP7oj-80" style="edgeStyle=orthogonalEdgeStyle;rounded=0;orthogonalLoop=1;jettySize=auto;html=1;exitX=0.5;exitY=0;exitDx=0;exitDy=0;exitPerimeter=0;entryX=0.5;entryY=1;entryDx=0;entryDy=0;" edge="1" parent="1" source="GbkhVhWCkFTG1RMTP7oj-79" target="GbkhVhWCkFTG1RMTP7oj-34">
          <mxGeometry relative="1" as="geometry" />
        </mxCell>
        <mxCell id="GbkhVhWCkFTG1RMTP7oj-79" value="" style="strokeWidth=2;html=1;shape=mxgraph.flowchart.database;whiteSpace=wrap;" vertex="1" parent="1">
          <mxGeometry x="650" y="610" width="60" height="60" as="geometry" />
        </mxCell>
        <mxCell id="GbkhVhWCkFTG1RMTP7oj-84" value="" style="swimlane;startSize=0;" vertex="1" parent="1">
          <mxGeometry x="920" y="355" width="200" height="200" as="geometry" />
        </mxCell>
        <mxCell id="GbkhVhWCkFTG1RMTP7oj-87" value="" style="edgeStyle=orthogonalEdgeStyle;rounded=0;orthogonalLoop=1;jettySize=auto;html=1;" edge="1" parent="1" source="GbkhVhWCkFTG1RMTP7oj-85" target="GbkhVhWCkFTG1RMTP7oj-86">
          <mxGeometry relative="1" as="geometry" />
        </mxCell>
        <mxCell id="GbkhVhWCkFTG1RMTP7oj-85" value="Website" style="rounded=0;whiteSpace=wrap;html=1;" vertex="1" parent="1">
          <mxGeometry x="170" y="-630" width="120" height="60" as="geometry" />
        </mxCell>
        <mxCell id="GbkhVhWCkFTG1RMTP7oj-89" value="" style="edgeStyle=orthogonalEdgeStyle;rounded=0;orthogonalLoop=1;jettySize=auto;html=1;" edge="1" parent="1" source="GbkhVhWCkFTG1RMTP7oj-86" target="GbkhVhWCkFTG1RMTP7oj-88">
          <mxGeometry relative="1" as="geometry" />
        </mxCell>
        <mxCell id="GbkhVhWCkFTG1RMTP7oj-100" value="" style="edgeStyle=orthogonalEdgeStyle;rounded=0;orthogonalLoop=1;jettySize=auto;html=1;" edge="1" parent="1" source="GbkhVhWCkFTG1RMTP7oj-86" target="GbkhVhWCkFTG1RMTP7oj-99">
          <mxGeometry relative="1" as="geometry" />
        </mxCell>
        <mxCell id="GbkhVhWCkFTG1RMTP7oj-86" value="Request Processor" style="rounded=0;whiteSpace=wrap;html=1;" vertex="1" parent="1">
          <mxGeometry x="370" y="-630" width="120" height="60" as="geometry" />
        </mxCell>
        <mxCell id="GbkhVhWCkFTG1RMTP7oj-91" value="" style="edgeStyle=orthogonalEdgeStyle;rounded=0;orthogonalLoop=1;jettySize=auto;html=1;" edge="1" parent="1" source="GbkhVhWCkFTG1RMTP7oj-88" target="GbkhVhWCkFTG1RMTP7oj-90">
          <mxGeometry relative="1" as="geometry" />
        </mxCell>
        <mxCell id="GbkhVhWCkFTG1RMTP7oj-88" value="Request Router" style="rounded=0;whiteSpace=wrap;html=1;" vertex="1" parent="1">
          <mxGeometry x="570" y="-630" width="120" height="60" as="geometry" />
        </mxCell>
        <mxCell id="GbkhVhWCkFTG1RMTP7oj-93" value="" style="edgeStyle=orthogonalEdgeStyle;rounded=0;orthogonalLoop=1;jettySize=auto;html=1;startArrow=classic;startFill=1;" edge="1" parent="1" source="GbkhVhWCkFTG1RMTP7oj-90" target="GbkhVhWCkFTG1RMTP7oj-92">
          <mxGeometry relative="1" as="geometry" />
        </mxCell>
        <mxCell id="GbkhVhWCkFTG1RMTP7oj-103" value="notify" style="edgeStyle=orthogonalEdgeStyle;rounded=0;orthogonalLoop=1;jettySize=auto;html=1;exitX=0.5;exitY=1;exitDx=0;exitDy=0;entryX=1;entryY=0.5;entryDx=0;entryDy=0;" edge="1" parent="1" source="GbkhVhWCkFTG1RMTP7oj-90" target="GbkhVhWCkFTG1RMTP7oj-99">
          <mxGeometry relative="1" as="geometry" />
        </mxCell>
        <mxCell id="GbkhVhWCkFTG1RMTP7oj-90" value="Code Processor" style="rounded=0;whiteSpace=wrap;html=1;" vertex="1" parent="1">
          <mxGeometry x="770" y="-630" width="120" height="60" as="geometry" />
        </mxCell>
        <mxCell id="GbkhVhWCkFTG1RMTP7oj-98" value="" style="edgeStyle=orthogonalEdgeStyle;rounded=0;orthogonalLoop=1;jettySize=auto;html=1;" edge="1" parent="1" source="GbkhVhWCkFTG1RMTP7oj-92" target="GbkhVhWCkFTG1RMTP7oj-96">
          <mxGeometry relative="1" as="geometry" />
        </mxCell>
        <mxCell id="GbkhVhWCkFTG1RMTP7oj-92" value="Judge" style="rounded=0;whiteSpace=wrap;html=1;" vertex="1" parent="1">
          <mxGeometry x="970" y="-630" width="120" height="60" as="geometry" />
        </mxCell>
        <mxCell id="GbkhVhWCkFTG1RMTP7oj-96" value="" style="strokeWidth=2;html=1;shape=mxgraph.flowchart.database;whiteSpace=wrap;" vertex="1" parent="1">
          <mxGeometry x="1160" y="-630" width="60" height="60" as="geometry" />
        </mxCell>
        <mxCell id="GbkhVhWCkFTG1RMTP7oj-105" value="" style="edgeStyle=orthogonalEdgeStyle;rounded=0;orthogonalLoop=1;jettySize=auto;html=1;" edge="1" parent="1" source="GbkhVhWCkFTG1RMTP7oj-99" target="GbkhVhWCkFTG1RMTP7oj-104">
          <mxGeometry relative="1" as="geometry" />
        </mxCell>
        <mxCell id="GbkhVhWCkFTG1RMTP7oj-106" style="edgeStyle=orthogonalEdgeStyle;rounded=0;orthogonalLoop=1;jettySize=auto;html=1;exitX=0;exitY=0.5;exitDx=0;exitDy=0;entryX=0.5;entryY=1;entryDx=0;entryDy=0;" edge="1" parent="1" source="GbkhVhWCkFTG1RMTP7oj-99" target="GbkhVhWCkFTG1RMTP7oj-85">
          <mxGeometry relative="1" as="geometry" />
        </mxCell>
        <mxCell id="GbkhVhWCkFTG1RMTP7oj-99" value="Response Processor" style="rounded=0;whiteSpace=wrap;html=1;" vertex="1" parent="1">
          <mxGeometry x="370" y="-490" width="120" height="60" as="geometry" />
        </mxCell>
        <mxCell id="GbkhVhWCkFTG1RMTP7oj-104" value="" style="strokeWidth=2;html=1;shape=mxgraph.flowchart.database;whiteSpace=wrap;" vertex="1" parent="1">
          <mxGeometry x="400" y="-390" width="60" height="60" as="geometry" />
        </mxCell>
      </root>
    </mxGraphModel>
  </diagram>
</mxfile>
